<?xml version="1.0" standalone="no"?>
<!DOCTYPE svg PUBLIC "-//W3C//DTD SVG 20010904//EN"
 "http://www.w3.org/TR/2001/REC-SVG-20010904/DTD/svg10.dtd">
<svg version="1.0" xmlns="http://www.w3.org/2000/svg"
 width="596.000000pt" height="419.000000pt" viewBox="0 0 596.000000 419.000000"
 preserveAspectRatio="xMidYMid meet">

<g transform="translate(0.000000,419.000000) scale(0.100000,-0.100000)"
fill="#C32148" stroke="none">
<path d="M3068 3874 c-49 -24 -88 -48 -88 -53 0 -40 47 -71 108 -71 47 0 59
13 76 77 7 26 16 58 20 71 11 33 -15 28 -116 -24z"/>
<path d="M3320 3904 c0 -20 96 -121 123 -130 13 -4 23 -1 29 10 5 9 19 16 30
16 31 0 9 20 -26 24 -18 2 -35 15 -52 39 -13 20 -33 41 -44 47 -28 15 -60 12
-60 -6z"/>
<path d="M3877 3773 c9 -3 10 -10 3 -23 -8 -15 -4 -19 28 -25 20 -3 51 -10 67
-15 17 -5 57 -14 90 -20 92 -18 198 -58 218 -81 l17 -21 0 21 c0 12 6 21 15
21 8 0 15 -7 15 -15 0 -9 12 -20 28 -25 15 -6 35 -14 44 -20 11 -6 26 -6 40 0
13 5 21 9 18 10 -3 1 -15 3 -28 6 -28 5 -79 30 -111 55 -26 20 -46 25 -36 9 8
-14 -96 28 -116 46 -9 8 -19 11 -22 8 -4 -4 -12 -2 -19 4 -7 5 -56 13 -108 17
-52 4 -102 12 -110 17 -16 10 156 3 200 -8 22 -6 23 -5 10 9 -8 8 -50 20 -93
26 -78 11 -173 14 -150 4z"/>
<path d="M3650 3750 c0 -12 13 -26 33 -37 l32 -17 -29 -6 c-26 -4 -28 -7 -15
-20 8 -8 25 -34 37 -58 l24 -43 -29 7 c-15 4 -46 13 -67 20 -27 9 -45 10 -58
3 -25 -13 -23 -17 6 -12 13 3 32 1 42 -5 14 -8 8 -10 -29 -13 -26 -2 -47 -1
-47 2 0 4 -30 -8 -67 -26 -78 -38 -97 -44 -101 -30 -6 17 8 86 24 117 9 16 13
32 10 35 -7 8 -34 -49 -66 -144 l-29 -88 -61 1 c-81 1 -88 10 -56 72 14 28 26
62 25 74 0 16 -5 10 -16 -20 -30 -85 -97 -100 -248 -56 -136 39 -136 40 -129
69 6 25 5 25 -20 14 -14 -7 -26 -16 -26 -22 0 -5 -8 -6 -17 -2 -10 4 -24 9
-30 12 -18 7 -16 -38 2 -64 20 -29 84 -46 139 -38 32 5 47 3 59 -9 11 -11 22
-14 39 -8 38 14 107 -6 120 -34 7 -15 17 -23 25 -20 8 3 21 2 31 -3 9 -5 30
-14 46 -20 16 -7 26 -14 23 -18 -4 -3 -24 2 -47 11 -51 20 -59 20 -34 0 19
-15 19 -15 -2 -9 -16 4 -26 -1 -37 -19 -9 -13 -26 -27 -37 -31 -20 -6 -74 6
-117 27 -22 11 -21 18 14 67 1 2 15 -1 30 -7 15 -6 41 -13 56 -17 26 -5 27 -4
17 15 -19 35 -53 45 -114 31 -29 -7 -62 -21 -72 -32 -18 -20 -18 -21 11 -42
43 -31 85 -74 85 -86 0 -15 -100 36 -107 55 -3 8 -13 13 -22 10 -9 -2 -26 -7
-37 -11 -14 -3 -28 1 -39 11 -9 9 -36 19 -61 22 -29 3 -48 11 -54 22 -5 10
-21 21 -36 24 -17 5 -24 12 -20 21 4 11 -2 15 -19 15 -18 0 -32 11 -49 39 -14
22 -30 42 -36 46 -16 10 -51 -2 -80 -26 -24 -21 -24 -22 -6 -33 34 -20 86 -68
86 -79 0 -6 -15 3 -32 20 -65 60 -220 145 -236 128 -9 -9 39 -94 74 -130 21
-21 46 -34 73 -39 34 -5 42 -11 47 -34 3 -15 8 -35 10 -44 3 -9 0 -25 -6 -35
-5 -10 -14 -30 -20 -45 -7 -21 -16 -28 -36 -28 -25 0 -26 1 -20 45 8 50 3 53
-50 35 -17 -6 -35 -24 -44 -43 -11 -24 -22 -32 -42 -33 -27 -1 -78 -28 -78
-41 0 -4 11 -16 26 -28 l25 -20 -21 -49 c-12 -26 -30 -51 -40 -53 -10 -3 -16
-11 -14 -18 6 -15 -15 -60 -23 -51 -3 3 0 12 7 21 14 17 0 21 -17 4 -7 -7 -15
-5 -27 7 -19 18 -30 12 -50 -27 -8 -17 -32 -29 -94 -48 -100 -29 -114 -23 -83
37 12 23 21 43 21 46 0 3 -17 2 -38 0 -24 -4 -32 -2 -24 4 7 5 12 14 10 21 -5
20 39 33 55 16 12 -12 16 -11 24 8 6 12 11 35 12 51 1 22 -2 27 -16 22 -9 -4
-20 -1 -24 5 -5 8 -17 4 -41 -15 -19 -14 -38 -23 -43 -18 -5 4 -5 2 -2 -4 6
-10 -47 -44 -67 -44 -10 0 13 40 48 85 23 29 26 37 12 32 -40 -16 -66 -19 -66
-8 0 7 -8 7 -27 0 -16 -5 -34 -12 -41 -14 -18 -7 0 -37 32 -55 16 -8 26 -22
26 -36 0 -13 9 -28 20 -34 11 -6 20 -20 20 -31 0 -12 8 -23 20 -26 21 -6 25
-20 11 -42 -8 -12 -15 -11 -50 3 -54 21 -63 20 -83 -8 -14 -19 -15 -28 -6 -48
9 -19 33 -31 112 -57 56 -17 109 -31 119 -31 26 0 21 -27 -12 -59 l-29 -28 39
-37 c21 -20 45 -36 53 -36 8 0 17 -6 19 -12 3 -8 6 -6 6 5 1 9 -5 17 -13 17
-8 0 -18 5 -22 11 -4 8 0 9 15 4 11 -3 21 -2 21 3 0 5 45 -14 99 -43 95 -49
100 -51 115 -34 14 17 13 20 -7 34 -28 19 -15 19 23 0 17 -9 30 -20 30 -26 0
-19 54 -58 73 -53 30 9 91 -38 105 -82 12 -41 9 -55 -10 -36 -16 16 -28 15
-28 -1 0 -7 22 -29 48 -50 40 -30 53 -35 76 -29 l28 8 -45 34 c-25 19 -48 45
-51 57 -3 11 -9 28 -12 37 -9 24 23 20 36 -4 12 -23 43 -41 77 -45 13 -1 39
-20 57 -41 31 -35 37 -38 55 -27 30 18 97 27 105 14 4 -7 -8 -13 -34 -17 -22
-4 -40 -10 -40 -13 0 -16 80 -51 114 -51 29 0 38 -5 45 -22 5 -13 7 -26 4 -30
-2 -5 1 -8 7 -8 6 0 13 7 17 16 5 13 8 12 25 -5 10 -12 25 -21 32 -21 8 0 19
-14 25 -31 9 -28 14 -31 38 -25 54 13 58 12 61 -16 3 -29 -10 -36 -37 -19 -8
5 -24 6 -37 0 -18 -6 -30 -3 -53 16 -16 14 -38 25 -50 25 -12 0 -21 6 -21 15
0 17 -6 18 -73 16 -41 -2 -53 2 -72 24 -18 19 -34 25 -65 25 -32 0 -40 4 -40
18 0 18 -29 52 -43 52 -4 0 -7 -9 -7 -19 0 -16 -7 -19 -39 -17 -22 1 -48 10
-59 19 -16 15 -20 15 -40 1 -21 -14 -23 -13 -62 47 -22 34 -40 67 -40 73 0 6
-8 20 -17 31 -15 19 -15 14 3 -29 6 -17 5 -17 -17 -6 -37 20 -114 101 -111
118 2 8 -1 11 -8 7 -6 -4 -18 -1 -26 6 -18 15 -26 7 -29 -28 -1 -16 -3 -38 -3
-50 -2 -30 -20 -29 -62 2 -18 14 -47 27 -64 31 -21 3 -40 18 -60 46 -28 39
-96 78 -136 78 -23 0 -45 -26 -30 -35 8 -5 4 -15 -11 -31 -15 -16 -23 -38 -25
-67 0 -23 -2 -44 -3 -45 -2 -5 -85 44 -154 90 -66 45 -77 31 -19 -24 39 -37
134 -103 190 -132 23 -12 32 -23 32 -41 0 -28 -16 -31 -43 -11 -21 16 -46 10
-100 -23 l-38 -24 37 -22 c32 -19 40 -21 52 -9 7 8 17 14 21 14 13 0 52 -47
55 -65 1 -10 22 -29 46 -44 24 -14 40 -20 36 -12 -5 8 -1 14 14 18 21 6 21 6
-5 33 l-25 27 26 12 c33 15 70 -6 80 -43 3 -14 11 -23 17 -20 7 2 18 0 26 -5
12 -8 13 -15 4 -34 -9 -19 -8 -25 8 -35 10 -7 19 -19 19 -27 0 -8 5 -15 10
-15 6 0 10 -9 10 -20 0 -15 20 -33 65 -62 59 -38 65 -45 63 -73 -1 -17 1 -36
5 -42 4 -6 3 -14 -3 -18 -5 -3 -10 -13 -10 -22 0 -11 6 -14 25 -9 26 7 45 -15
45 -52 0 -19 39 -62 57 -62 15 0 43 -34 43 -54 0 -16 -6 -17 -37 -11 -66 12
-127 45 -170 91 -35 39 -47 45 -75 43 -75 -5 -85 12 -53 88 8 19 15 42 15 49
0 17 -36 18 -47 2 -4 -7 -17 -18 -28 -24 -11 -6 -21 -21 -23 -33 -2 -12 -13
-23 -27 -27 -13 -3 -26 -13 -29 -21 -6 -14 -9 -14 -26 2 -27 24 -28 90 -1 104
12 7 20 24 23 50 l3 39 -115 76 c-101 67 -121 86 -162 147 -29 43 -48 63 -48
52 0 -10 -5 -24 -11 -30 -17 -17 -79 -4 -115 24 -27 20 -38 23 -75 17 -48 -8
-89 -42 -89 -73 0 -15 10 -23 39 -31 46 -12 179 -11 187 1 7 11 37 -4 94 -50
74 -58 85 -77 48 -83 -56 -8 -19 -66 55 -88 52 -15 97 -38 97 -48 0 -24 -33
-45 -93 -60 -38 -10 -69 -21 -70 -25 -3 -9 88 -81 130 -103 37 -20 63 -13 63
16 0 28 26 26 73 -7 65 -45 73 -83 16 -83 -40 0 -85 -24 -92 -49 -4 -17 -2
-19 13 -11 10 6 21 10 24 10 12 0 6 -82 -8 -115 -15 -34 -14 -35 22 -65 20
-16 45 -30 54 -30 10 0 18 -1 18 -3 0 -1 -4 -17 -9 -35 -11 -37 -1 -42 29 -12
19 19 24 32 21 55 0 6 8 33 18 60 16 43 23 50 49 53 22 2 35 -3 50 -22 11 -15
28 -26 38 -26 13 0 15 -3 7 -11 -7 -7 -7 -18 1 -35 9 -21 16 -25 43 -20 27 4
35 0 45 -17 7 -14 13 -17 16 -9 2 6 9 9 15 5 6 -4 8 0 4 10 -11 28 7 19 53
-28 37 -37 41 -46 30 -60 -10 -12 -10 -21 0 -44 8 -21 9 -39 1 -67 -6 -22 -11
-52 -11 -68 0 -25 -3 -28 -22 -22 -13 3 -26 6 -30 6 -14 0 -9 28 6 33 7 3 16
18 19 34 3 15 9 40 13 55 5 25 3 28 -17 28 -32 1 -56 21 -65 54 -5 20 -9 24
-15 14 -14 -21 -10 -58 6 -64 8 -3 17 -16 21 -27 3 -12 14 -31 23 -42 9 -11 1
-7 -17 8 -38 30 -52 34 -52 12 0 -11 -5 -12 -24 -5 -15 5 -27 5 -34 -2 -8 -8
-14 -4 -22 16 -5 15 -7 32 -4 38 4 6 -6 20 -22 33 -22 18 -33 20 -49 13 -21
-10 -21 -10 7 -40 29 -32 37 -63 16 -71 -7 -2 -17 2 -23 9 -10 13 -65 8 -65
-6 0 -4 11 -15 25 -24 14 -9 23 -21 20 -26 -6 -9 2 -11 60 -14 17 -1 20 -7 17
-45 -8 -97 -66 -123 -86 -38 -6 26 -8 27 -81 27 -40 0 -77 -5 -80 -10 -4 -6
-10 -8 -15 -5 -5 3 -30 8 -57 11 -26 3 -54 10 -61 16 -20 17 -27 0 -8 -21 23
-25 96 -45 96 -25 0 8 5 14 10 14 15 0 12 -36 -5 -50 -8 -7 -12 -16 -9 -21 3
-5 12 -2 20 6 19 19 37 19 72 1 27 -14 97 -84 90 -91 -2 -2 -26 5 -55 15 -65
23 -135 29 -140 13 -2 -6 18 -26 46 -44 49 -32 50 -34 36 -56 -9 -13 -11 -23
-6 -23 5 0 13 5 16 10 3 6 22 10 40 10 28 0 36 -4 41 -25 9 -35 28 -48 77 -50
35 -1 43 -6 45 -23 2 -16 10 -22 28 -22 14 0 24 6 24 14 0 21 68 42 83 26 9
-9 6 -16 -12 -31 -28 -23 -27 -24 17 -32 30 -6 33 -5 27 13 -5 15 -2 20 13 20
23 0 46 -25 37 -40 -7 -12 10 -14 88 -10 49 2 64 -2 97 -25 21 -15 56 -29 78
-32 38 -5 40 -4 46 28 13 68 20 71 188 83 l153 12 -68 16 c-79 19 -119 41
-111 63 4 8 1 15 -5 15 -7 0 -11 8 -9 17 2 13 -5 19 -22 22 -14 1 -40 18 -58
37 -18 19 -36 34 -41 34 -4 0 -8 -19 -9 -42 -2 -24 -5 -52 -9 -63 -6 -19 -6
-19 -14 3 -12 31 -39 29 -39 -3 0 -18 -5 -25 -19 -25 -27 0 -31 10 -21 56 26
124 20 151 -14 67 -11 -26 -21 -42 -23 -36 -2 6 -13 9 -23 6 -14 -4 -23 2 -31
20 -13 28 -5 48 43 109 26 33 32 36 49 25 10 -6 19 -17 19 -24 0 -7 9 -17 20
-23 27 -14 25 -2 -5 42 -28 41 -32 76 -11 84 8 3 36 -1 63 -8 l48 -14 1 -47
c0 -34 7 -54 22 -70 27 -28 27 -37 5 -39 -10 0 2 -4 27 -7 35 -5 47 -11 55
-29 6 -13 33 -35 60 -49 28 -14 64 -35 80 -48 17 -12 41 -26 55 -30 43 -13
100 -48 100 -62 0 -7 -9 -22 -20 -33 -25 -25 -24 -28 53 -92 34 -28 68 -60 76
-71 14 -19 13 -20 -25 -13 -100 18 -167 25 -269 30 -123 5 -141 10 -148 35 -3
14 -12 17 -34 14 -24 -4 -35 1 -48 19 -17 22 -17 22 -12 1 3 -13 1 -20 -7 -17
-7 3 -11 -12 -11 -43 0 -60 9 -65 162 -91 108 -18 115 -21 203 -80 139 -94
156 -85 79 46 -23 40 -34 71 -29 76 13 13 120 -11 144 -33 38 -34 64 -41 153
-41 88 0 127 10 108 28 -6 6 -50 31 -100 57 -95 49 -122 72 -105 89 6 6 35 4
82 -7 40 -9 94 -19 121 -23 l47 -5 0 -55 c0 -48 3 -56 24 -65 32 -15 80 1 84
27 2 11 -10 32 -28 49 -33 32 -38 45 -15 45 8 0 15 4 15 10 0 5 -7 7 -15 4
-13 -5 -129 75 -120 84 2 2 14 -3 27 -12 34 -24 44 -19 18 9 -13 14 -21 27
-18 30 3 3 36 -23 74 -58 38 -35 74 -62 80 -60 14 5 39 -25 52 -64 12 -35 80
-123 95 -123 12 0 -1 111 -14 127 -14 16 5 25 36 17 21 -5 25 -12 25 -44 0
-20 -5 -51 -11 -69 -13 -37 -5 -81 15 -81 8 0 16 10 18 22 3 24 40 39 116 47
6 0 12 12 12 25 0 13 7 30 16 37 18 15 15 73 -6 124 l-13 30 -8 -42 c-15 -78
-57 -133 -103 -133 -17 0 -18 5 -12 75 8 89 12 102 34 108 12 3 11 5 -5 6 -12
0 -25 6 -28 11 -4 6 -11 8 -16 5 -12 -8 -12 48 0 61 5 5 11 17 13 27 2 14 9
10 31 -18 16 -20 29 -44 30 -55 2 -29 16 -24 23 8 13 58 15 61 47 64 l32 3 10
97 c6 53 13 100 18 104 4 4 7 27 7 51 0 91 30 240 49 244 3 1 48 3 99 3 69 2
92 -1 92 -11 0 -7 15 -16 33 -21 31 -9 31 -9 7 -15 -14 -3 -63 -11 -110 -18
-47 -7 -76 -15 -65 -17 29 -5 45 -31 45 -69 0 -45 17 -42 85 13 31 26 76 57
98 69 34 17 44 29 51 61 5 21 11 41 13 43 2 3 17 -6 34 -18 42 -31 142 -44
311 -39 105 3 139 0 142 -9 8 -19 26 -16 90 12 33 15 60 34 64 46 5 11 11 20
15 20 4 -1 8 2 10 6 3 8 -113 35 -127 29 -6 -2 0 -8 13 -13 24 -10 24 -10 3
-15 -13 -4 -22 -1 -23 5 -1 16 -6 45 -14 75 -5 21 -3 23 12 17 41 -17 56 -16
23 2 -20 10 -37 29 -41 43 -5 17 -7 19 -8 7 -1 -14 -6 -17 -23 -12 l-23 6 23
-17 c22 -17 30 -48 13 -58 -5 -3 -33 -2 -62 4 -30 5 -92 14 -138 19 -96 12
-185 48 -219 89 -19 23 -24 25 -32 12 -6 -8 -9 -22 -7 -30 3 -12 -6 -15 -40
-16 -23 0 -43 3 -43 6 0 16 51 60 69 60 21 0 94 39 76 41 -5 0 -27 0 -48 -1
-31 -1 -43 5 -70 32 -17 18 -41 46 -52 62 -11 16 -31 41 -43 57 -13 16 -21 29
-17 29 14 0 240 -122 251 -136 6 -8 20 -11 33 -7 13 3 26 1 30 -5 3 -6 19 -13
33 -16 15 -2 47 -18 70 -34 46 -31 122 -72 135 -72 4 0 -30 22 -76 48 -47 27
-86 53 -88 58 -2 5 20 17 48 27 57 21 98 16 125 -14 9 -10 22 -19 27 -19 6 0
-2 13 -17 29 -16 16 -35 27 -42 24 -24 -9 -15 6 14 22 l27 16 -33 -6 c-26 -5
-38 -1 -63 19 -37 31 -44 32 -71 6 -26 -24 -80 -50 -105 -50 -10 0 -45 13 -78
28 l-59 28 104 13 c58 7 137 18 175 26 l70 13 -61 1 c-54 1 -69 6 -115 37 -30
20 -65 47 -80 60 -14 13 -35 24 -47 24 -45 0 -16 -35 60 -70 87 -41 87 -64 -2
-73 -90 -10 -161 -7 -197 8 -48 20 -145 119 -131 133 6 6 18 8 27 4 13 -5 14
-3 3 10 -8 10 -10 31 -5 63 5 38 3 49 -10 57 -21 11 -22 57 -2 64 9 4 73 -28
152 -75 115 -68 144 -81 182 -82 26 0 55 -4 66 -8 11 -4 27 -6 36 -4 14 4 15
11 7 41 -5 21 -13 57 -17 82 -4 25 -15 59 -24 77 -9 18 -17 46 -17 62 0 17 -7
48 -16 69 -16 36 -22 39 -123 72 -86 29 -112 42 -143 74 -39 40 -57 81 -42 95
5 4 54 20 109 34 55 15 141 40 191 56 115 36 140 33 149 -20 4 -21 11 -42 17
-45 5 -4 16 -20 24 -38 l15 -31 -6 35 c-5 32 -11 82 -31 248 -8 72 -24 83 -24
17 0 -33 -5 -50 -20 -62 -21 -18 -28 -39 -9 -27 7 4 10 1 7 -6 -6 -19 -19 -25
-158 -66 -142 -42 -256 -52 -254 -23 1 11 -5 15 -17 12 -16 -5 -19 0 -19 33 1
45 35 302 41 308 2 2 37 5 78 7 l74 4 4 -29 c2 -16 13 -45 23 -65 18 -34 19
-35 20 -10 0 15 -6 32 -14 38 -16 13 -27 69 -14 77 13 8 -20 50 -50 63 l-27
11 28 -21 c15 -11 27 -24 27 -29 0 -13 -59 -30 -101 -30 l-39 0 0 48 c0 58 4
64 38 51 l27 -10 -24 25 c-21 22 -23 32 -19 83 3 31 10 59 16 61 8 2 8 8 0 22
-9 14 -9 28 0 56 13 43 9 54 -19 54 -10 0 -19 4 -19 9 0 9 -89 43 -120 46 -46
5 -148 52 -171 79 -23 27 -29 29 -43 17 -14 -12 -16 -7 -16 53 0 52 -3 66 -15
66 -23 0 -42 -40 -50 -100 -17 -138 -32 -113 -41 65 -6 123 -5 142 10 154 8 7
23 11 31 7 11 -4 15 1 15 19 0 19 -8 28 -35 39 -27 12 -35 21 -36 43 -2 24 -2
24 -6 6 -4 -22 -23 -33 -23 -13 0 13 -41 50 -57 50 -7 0 -13 -9 -13 -20z m35
-240 c3 -5 1 -10 -4 -10 -6 0 -11 5 -11 10 0 6 2 10 4 10 3 0 8 -4 11 -10z
m-1339 -51 c19 -21 19 -21 -9 -8 -15 7 -27 16 -27 21 0 14 16 9 36 -13z m1132
-24 c-3 -14 -2 -25 2 -25 4 0 11 11 14 25 7 28 31 33 44 9 8 -15 13 -15 60 0
29 10 62 16 74 14 22 -3 23 -8 26 -88 l3 -85 -30 -1 c-17 -1 -28 2 -26 6 5 8
-50 30 -142 57 -35 10 -63 21 -63 26 0 4 5 7 10 7 19 0 10 17 -17 29 l-27 12
30 20 c39 25 47 24 42 -6z m-895 -67 c18 -13 35 -27 39 -33 4 -5 12 -11 18
-11 5 -1 14 -2 18 -3 5 0 9 -19 10 -42 2 -39 1 -41 -22 -35 -14 3 -28 1 -31
-5 -8 -12 -6 -15 22 -23 17 -6 25 -1 38 21 l16 28 -4 -37 c-3 -36 -1 -38 24
-38 27 0 44 -12 33 -23 -3 -3 -17 -2 -31 2 -20 5 -32 1 -50 -17 -27 -26 -49
-21 -33 8 14 26 13 30 -10 30 -10 0 -23 7 -28 17 -9 15 -14 14 -55 -10 -25
-15 -50 -27 -55 -27 -6 0 -15 14 -21 32 -9 25 -8 42 4 79 9 26 14 51 13 57 -4
15 34 51 55 51 10 1 32 -9 50 -21z m717 2 c0 -13 -7 -20 -19 -20 -27 0 -35 17
-14 29 26 15 33 13 33 -9z m154 -38 c3 -4 40 -19 83 -32 74 -23 113 -44 113
-61 0 -5 27 -35 60 -67 54 -52 60 -62 60 -99 0 -23 -4 -44 -8 -47 -13 -8 -31
8 -29 28 2 14 -12 21 -68 36 -38 10 -72 16 -74 14 -2 -2 1 -4 8 -4 23 0 41
-67 41 -154 0 -75 2 -85 19 -91 28 -8 30 -20 36 -188 8 -209 3 -197 70 -190
l55 6 0 -32 c0 -44 -38 -81 -85 -81 -19 0 -35 -3 -35 -7 0 -5 23 -21 51 -38
33 -20 45 -31 34 -33 -11 -3 -14 -9 -10 -20 4 -10 10 -26 13 -37 4 -18 1 -17
-24 6 -16 14 -59 42 -96 61 -65 34 -68 35 -80 16 -12 -18 -16 -18 -83 -3 -38
8 -81 18 -95 21 -20 4 -22 3 -13 -7 9 -9 3 -18 -29 -41 l-41 -30 -20 21 c-17
16 -19 23 -9 33 7 7 12 17 12 23 0 13 -71 55 -93 55 -16 0 -60 40 -53 48 2 2
13 -1 24 -7 18 -9 20 -6 25 35 2 25 7 47 10 50 2 3 38 -13 78 -35 44 -24 88
-41 107 -41 42 0 75 -17 68 -35 -6 -17 11 -24 52 -18 33 5 42 17 20 26 -7 3
-4 6 8 6 11 1 25 -4 31 -10 7 -7 16 -7 29 0 11 5 32 13 47 16 l29 6 -27 25
c-14 13 -45 34 -68 46 -51 25 -167 107 -167 117 0 23 -44 51 -80 51 -47 0 -86
31 -74 58 3 9 8 34 9 55 2 21 5 41 9 44 12 12 6 23 -12 23 -18 0 -18 4 -5 83
29 177 32 184 63 197 20 8 54 10 105 5 41 -4 75 -4 75 -1 0 2 -18 15 -40 27
-34 19 -40 28 -40 56 0 21 -5 33 -14 33 -18 0 -40 26 -27 34 13 8 41 -4 41
-18 1 -16 144 -86 177 -85 24 0 21 4 -26 24 -29 14 -87 46 -128 72 -67 43 -73
48 -52 54 34 10 37 10 43 1z m641 -55 c20 -2 59 -35 68 -59 3 -9 9 -8 20 7 23
30 47 4 47 -51 0 -50 -7 -53 -67 -30 -21 8 -59 19 -85 26 -29 8 -53 21 -62 35
-9 13 -32 29 -53 35 -60 20 -101 68 -77 92 3 3 46 -8 97 -24 51 -16 101 -31
112 -31z m-520 33 c13 -5 14 -9 5 -9 -8 0 -24 4 -35 9 -13 5 -14 9 -5 9 8 0
24 -4 35 -9z m-435 -48 l65 -38 -2 -69 c-2 -38 -7 -73 -13 -79 -7 -7 -10 -3
-10 13 0 25 7 25 -134 4 -44 -7 -42 -16 -15 89 10 38 10 53 0 74 -10 22 -9 29
1 35 23 15 42 10 108 -29z m160 -2 c0 -14 -14 -12 -28 2 -19 19 -14 30 8 18
11 -6 20 -15 20 -20z m388 -3 c2 -9 -2 -17 -9 -17 -7 0 -9 3 -6 7 4 3 1 13 -6
21 -10 13 -9 14 3 10 8 -2 16 -12 18 -21z m-874 -29 c21 -34 -7 -37 -59 -7
l-50 30 49 -3 c33 -2 52 -9 60 -20z m192 -13 c12 0 20 -5 17 -12 -8 -19 -76
-10 -79 10 -2 14 2 16 19 10 12 -4 32 -7 43 -8z m-695 -39 c5 -16 17 -38 27
-50 11 -11 20 -30 20 -41 2 -50 -8 -64 -64 -89 -31 -14 -57 -26 -58 -26 -1 0
-1 35 0 78 3 120 54 206 75 128z m1621 -10 c23 7 172 -13 203 -27 11 -5 32
-13 48 -19 23 -8 27 -15 27 -47 0 -90 -18 -100 -99 -58 -33 16 -48 30 -47 42
1 14 -11 21 -54 30 -30 6 -68 12 -85 12 -22 1 -34 9 -47 32 -24 42 -23 50 8
38 15 -5 36 -7 46 -3z m-1392 -11 c-11 -13 -9 -15 13 -15 22 0 37 -16 37 -41
0 -17 -21 -9 -66 23 -38 27 -42 33 -27 39 10 4 26 8 37 8 15 1 16 -2 6 -14z
m406 -11 c-3 -7 -1 -16 4 -19 6 -4 10 -12 10 -20 0 -18 -60 -31 -70 -15 -8 13
-2 49 12 66 12 16 51 5 44 -12z m-421 -54 c3 -5 1 -10 -4 -10 -6 0 -11 5 -11
10 0 6 2 10 4 10 3 0 8 -4 11 -10z m345 1 c0 -12 -29 -41 -41 -41 -5 0 -2 11
7 25 16 25 34 33 34 16z m1026 -6 c15 -11 16 -14 3 -15 -8 0 -24 7 -35 15 -15
11 -16 14 -3 15 8 0 24 -7 35 -15z m-1412 -11 c19 -18 21 -68 5 -113 -17 -48
-53 -37 -61 19 -2 17 -9 25 -23 25 -26 0 -31 29 -11 60 19 29 66 34 90 9z m71
-14 c-3 -5 -11 -10 -16 -10 -6 0 -7 5 -4 10 3 6 11 10 16 10 6 0 7 -4 4 -10z
m61 -74 c-7 -43 -9 -45 -49 -54 -72 -15 -77 -5 -39 76 10 24 20 32 32 29 10
-3 24 -1 31 4 23 14 32 -7 25 -55z m517 57 c43 -8 60 -51 55 -145 -3 -73 -5
-80 -33 -103 -39 -31 -45 -31 -36 3 5 15 14 26 20 24 7 -1 10 2 6 8 -7 12 -32
13 -38 3 -3 -5 -8 -23 -12 -40 -5 -24 -3 -33 7 -33 7 0 19 -4 27 -9 12 -8 12
-13 -3 -35 -13 -20 -25 -26 -52 -26 -34 0 -36 2 -30 26 4 16 2 32 -6 42 -11
13 -10 14 15 8 36 -9 34 -2 -8 23 -19 11 -35 28 -35 38 -1 17 -2 16 -15 -1 -8
-11 -15 -28 -15 -39 0 -13 -5 -17 -16 -13 -9 3 -20 6 -25 6 -11 0 -12 157 -1
163 4 3 33 8 65 11 l57 7 0 -30 c0 -39 27 -42 36 -5 5 19 2 29 -10 36 -10 6
-16 22 -16 47 0 40 8 45 63 34z m-1263 -13 c0 -5 -5 -10 -11 -10 -5 0 -7 5 -4
10 3 6 8 10 11 10 2 0 4 -4 4 -10z m2143 -5 c30 -5 37 -10 32 -24 -12 -39 -36
-128 -41 -156 -4 -23 -1 -35 15 -49 18 -16 25 -17 49 -7 16 7 47 11 68 9 l39
-3 -3 -65 c-1 -36 -10 -112 -18 -170 -19 -127 -29 -139 -117 -140 -32 0 -66 4
-75 9 -11 6 -26 5 -42 -4 l-24 -13 39 -16 c21 -9 51 -14 65 -11 14 3 37 -1 51
-9 15 -7 39 -11 53 -9 19 4 26 1 26 -10 0 -9 -4 -19 -10 -22 -5 -3 -10 -21
-10 -40 0 -73 -26 -82 -113 -39 -46 24 -50 24 -34 6 18 -20 18 -20 0 -16 -23
6 -43 71 -32 103 7 18 5 21 -14 21 -42 0 -54 59 -60 293 -4 140 1 157 49 157
22 0 24 4 23 48 0 26 -4 73 -8 105 -4 32 -5 59 -3 62 2 2 16 2 31 0 14 -2 43
-7 64 -10z m170 -69 c4 -6 6 -33 5 -61 l-3 -50 -53 -3 c-60 -3 -102 16 -102
47 0 10 7 35 15 54 8 20 15 48 15 62 l0 26 58 -32 c31 -18 60 -37 65 -43z
m-1243 58 c0 -3 -5 -15 -11 -26 -9 -17 -13 -18 -20 -7 -15 23 -10 39 11 39 11
0 20 -3 20 -6z m-1184 -41 c-4 -4 -11 -1 -16 7 -16 25 -11 35 7 17 9 -9 13
-20 9 -24z m1095 22 c33 -14 33 -14 7 -15 -14 0 -28 6 -31 13 -3 9 -7 9 -17 0
-10 -10 -10 -18 0 -45 8 -18 19 -36 24 -40 6 -4 11 -11 12 -15 0 -4 8 -32 17
-62 9 -30 17 -70 17 -90 0 -32 -23 -71 -41 -71 -5 0 -37 19 -73 43 -35 23 -72
47 -82 53 -10 6 -18 23 -19 40 0 23 -4 28 -19 26 -41 -7 -66 7 -66 38 0 36 13
45 42 28 46 -24 58 -21 51 15 -3 17 -10 35 -15 38 -6 3 0 9 12 12 12 3 19 10
16 16 -19 30 106 42 165 16z m829 -45 c0 -5 -5 -10 -11 -10 -5 0 -7 5 -4 10 3
6 8 10 11 10 2 0 4 -4 4 -10z m-1885 -54 c-9 -14 -13 -31 -9 -37 4 -8 3 -9 -5
-5 -12 8 -6 41 12 64 17 22 19 5 2 -22z m565 8 c0 -14 -3 -14 -15 -4 -8 7 -15
14 -15 16 0 2 7 4 15 4 8 0 15 -7 15 -16z m1487 -6 c-3 -8 -6 -5 -6 6 -1 11 2
17 5 13 3 -3 4 -12 1 -19z m-1306 2 c10 -6 19 -21 19 -34 0 -20 -4 -23 -22
-19 -25 6 -68 41 -68 55 0 11 48 10 71 -2z m360 -63 c-8 -8 -11 -1 -11 24 0
46 14 60 18 19 2 -18 -1 -37 -7 -43z m-821 23 c0 -18 84 -36 122 -26 31 8 41
6 58 -9 12 -10 20 -28 18 -39 -2 -17 -9 -20 -33 -18 -24 3 -28 1 -17 -9 19
-21 14 -37 -18 -54 -81 -42 -234 10 -278 94 -12 24 -21 45 -20 47 2 1 35 9 73
17 68 14 95 13 95 -3z m1671 -3 c-1 -12 -15 -9 -19 4 -3 6 1 10 8 8 6 -3 11
-8 11 -12z m53 -19 c3 -13 7 -49 10 -80 5 -50 3 -60 -19 -86 -14 -17 -25 -35
-25 -42 0 -6 -5 -8 -11 -4 -13 7 -8 201 5 222 12 20 35 14 40 -10z m-1399 -23
c-16 -13 -31 -22 -34 -20 -8 8 32 45 48 45 11 -1 7 -8 -14 -25z m149 -41 c21
-8 20 -16 -3 -41 l-20 -21 -71 26 c-48 17 -67 28 -58 33 15 10 129 12 152 3z
m-34 -89 c18 -22 0 -37 -39 -33 -31 3 -31 4 -16 26 19 26 37 28 55 7z m-286
-29 c28 -23 29 -46 1 -46 -11 0 -45 51 -45 67 0 9 18 0 44 -21z m235 -26 c10
-5 21 -18 24 -29 4 -18 0 -19 -47 -18 -45 2 -51 5 -54 25 -6 41 4 53 33 42 15
-6 34 -14 44 -20z m238 -26 c12 -3 25 -15 28 -25 4 -12 16 -19 30 -19 13 0 26
-6 28 -12 3 -8 6 -6 6 5 1 11 -11 23 -30 31 -17 7 -27 16 -21 20 11 7 90 -36
147 -80 17 -13 38 -24 44 -24 9 0 12 -14 10 -44 -3 -34 -1 -42 8 -34 25 20 42
1 40 -45 -2 -38 -6 -47 -31 -61 -27 -15 -28 -18 -12 -35 21 -23 21 -57 0 -65
-9 -4 -18 -5 -18 -4 -1 2 -10 16 -20 32 -14 22 -15 30 -6 36 9 6 6 10 -8 15
-14 4 -26 21 -34 47 -14 48 -57 72 -109 61 -32 -6 -32 -6 -26 25 10 51 1 62
-52 62 -60 0 -91 9 -91 26 0 8 3 14 8 14 4 0 18 18 32 40 25 40 36 45 77 34z
m-423 -66 c10 -39 7 -45 -19 -40 -18 3 -25 11 -25 26 0 41 34 51 44 14z m806
-4 c0 -8 -7 -14 -15 -14 -15 0 -21 21 -9 33 10 9 24 -2 24 -19z m36 -22 c19
-12 34 -50 28 -66 -9 -23 -29 -20 -80 10 l-45 26 33 19 c37 20 48 22 64 11z
m474 -48 c0 -15 -6 -24 -15 -24 -16 0 -19 17 -9 44 9 22 24 10 24 -20z m-1130
11 c20 -24 6 -28 -15 -5 -10 11 -13 20 -8 20 6 0 16 -7 23 -15z m-362 -28 c6
-7 7 -18 3 -25 -5 -9 -11 -5 -19 13 -12 26 -2 34 16 12z m505 -22 c20 -14 37
-30 37 -36 0 -14 -76 27 -83 46 -9 21 3 19 46 -10z m537 -90 c0 -31 -3 -35
-25 -35 -14 0 -25 3 -25 6 0 17 34 63 48 64 1 0 2 -16 2 -35z m-947 5 c4 -17
2 -18 -14 -9 -37 19 -18 -5 56 -74 72 -66 75 -71 75 -113 0 -40 2 -44 25 -44
22 0 25 -4 25 -34 0 -19 -4 -37 -9 -40 -26 -16 -141 79 -164 136 -13 32 -14
32 -25 11 -8 -14 -18 -20 -32 -16 -18 5 -19 2 -14 -26 7 -32 0 -36 -46 -33
-10 1 -16 -10 -17 -30 -3 -42 -12 -48 -53 -39 -27 6 -34 12 -32 27 12 73 19
90 40 99 16 7 22 18 22 40 l1 30 18 -22 c11 -13 21 -23 23 -23 1 0 4 20 5 45
1 25 11 66 23 90 19 40 26 45 55 45 24 0 34 -5 38 -20z m1687 -5 c0 -8 -7 -15
-15 -15 -9 0 -15 -9 -15 -23 0 -18 5 -23 21 -23 32 1 34 -21 3 -28 -43 -11
-68 38 -44 85 13 22 50 26 50 4z m20 -25 c0 -5 -5 -10 -11 -10 -5 0 -7 5 -4
10 3 6 8 10 11 10 2 0 4 -4 4 -10z m-663 -6 c-3 -3 -12 -4 -19 -1 -8 3 -5 6 6
6 11 1 17 -2 13 -5z m-1232 -15 c11 -17 2 -18 -19 -3 -17 12 -17 14 -4 14 9 0
20 -5 23 -11z m2229 -23 c34 -18 92 -44 130 -56 39 -13 80 -33 92 -45 22 -22
44 -82 44 -120 0 -11 6 -30 14 -41 14 -20 38 -125 30 -133 -2 -2 -36 22 -76
53 l-73 57 75 -70 c41 -39 69 -71 62 -71 -16 0 -189 96 -271 150 -134 88 -133
86 -124 133 l5 28 32 -24 c46 -35 54 -38 61 -27 4 6 3 10 -2 9 -18 -3 -33 2
-30 10 1 5 -2 10 -8 12 -11 3 -45 44 -45 54 0 4 42 4 94 0 52 -4 100 -3 108 1
8 6 -26 11 -87 14 l-100 5 -6 43 c-8 63 -7 64 75 18z m-2468 -53 c-8 -8 -36 5
-36 17 0 7 6 7 21 0 11 -7 18 -14 15 -17z m2201 -21 c-16 -2 -35 2 -43 9 -27
22 -14 27 29 11 40 -16 41 -17 14 -20z m-997 4 c0 -3 -4 -8 -10 -11 -5 -3 -10
-1 -10 4 0 6 5 11 10 11 6 0 10 -2 10 -4z m424 -17 c84 -26 72 -37 -40 -38
-56 -1 -77 3 -94 17 -54 44 19 55 134 21z m529 -70 c29 -18 63 -39 77 -48 l24
-16 -16 23 c-9 13 -33 36 -54 50 l-39 26 31 8 c49 12 117 -4 130 -31 15 -29 3
-67 -20 -63 -26 5 -22 -76 5 -104 17 -18 22 -38 24 -96 1 -40 4 -77 5 -83 5
-22 -13 -55 -31 -55 -23 0 -27 48 -5 56 10 4 6 13 -14 34 -15 16 -28 41 -28
57 0 15 -1 35 -2 43 -1 8 2 25 5 37 6 19 0 27 -40 50 -83 49 -102 72 -108 128
-3 28 -3 42 0 33 2 -9 28 -31 56 -49z m-689 9 c40 -40 39 -60 -2 -42 -9 4 -26
9 -37 11 -24 4 -45 30 -45 55 0 32 40 20 84 -24z m546 -2 c0 -24 6 -36 21 -42
16 -8 22 -21 25 -54 2 -25 6 -78 10 -118 l6 -73 -39 16 c-21 8 -45 23 -53 33
-8 9 -35 27 -60 38 -25 12 -66 40 -92 63 -25 22 -53 41 -61 41 -21 0 -64 40
-72 67 -5 19 -1 23 29 28 26 5 48 1 90 -19 30 -14 63 -26 73 -26 24 0 43 19
43 42 0 11 7 18 20 18 10 0 25 6 32 14 18 20 28 10 28 -28z m-1325 14 c-3 -5
-10 -10 -16 -10 -5 0 -9 5 -9 10 0 6 7 10 16 10 8 0 12 -4 9 -10z m385 -45 c0
-8 -15 -22 -32 -30 -29 -14 -31 -14 -14 0 11 8 23 15 28 15 4 0 8 7 8 15 0 8
2 15 5 15 3 0 5 -7 5 -15z m-280 -15 c0 -5 -4 -10 -10 -10 -5 0 -10 5 -10 10
0 6 5 10 10 10 6 0 10 -4 10 -10z m758 -34 c22 -8 42 -12 45 -10 9 10 56 -8
52 -19 -3 -7 1 -19 8 -27 16 -20 234 -145 267 -153 79 -18 104 -27 116 -39 12
-11 18 -46 41 -233 l5 -40 -55 50 c-30 28 -55 53 -56 57 -1 4 20 -2 45 -13 36
-15 44 -16 34 -4 -7 8 -18 15 -24 15 -7 0 -37 22 -67 50 -30 27 -46 47 -36 44
10 -4 26 1 38 12 19 17 19 18 -28 36 -31 11 -75 18 -121 18 -83 0 -94 8 -160
103 -50 74 -84 40 -42 -42 11 -23 17 -41 13 -41 -14 1 -100 86 -114 113 -8 14
-33 39 -56 56 -31 22 -40 35 -36 50 8 32 66 40 131 17z m-1000 -36 c17 -11 32
-23 32 -26 0 -4 -6 -1 -14 5 -8 7 -20 11 -28 10 -27 -3 -38 1 -38 16 0 20 8
19 48 -5z m787 -10 c38 -14 44 -19 25 -20 -17 -1 -33 -13 -53 -41 -15 -22 -32
-37 -37 -34 -11 7 -14 98 -3 108 9 10 12 9 68 -13z m-369 -12 c-3 -13 -6 -26
-6 -31 0 -10 -50 23 -50 33 0 8 22 17 49 19 9 1 11 -6 7 -21z m258 -65 c46
-48 66 -76 66 -93 0 -31 -17 -50 -43 -50 -29 0 -19 54 11 58 23 4 23 4 -8 32
-17 15 -51 40 -76 56 -42 27 -52 42 -37 57 12 13 21 7 87 -60z m-468 44 c2 -7
1 -24 -5 -38 l-9 -24 -11 28 c-6 15 -18 27 -26 27 -9 0 -13 5 -10 10 9 15 55
12 61 -3z m344 -26 c0 -10 -6 -24 -14 -31 -8 -6 -13 -17 -10 -24 3 -9 -9 -15
-39 -19 -62 -9 -105 -26 -88 -36 10 -7 10 -14 -2 -37 -13 -25 -13 -32 -1 -49
10 -13 14 -46 13 -109 -2 -103 -9 -148 -25 -153 -8 -3 -10 31 -6 115 3 76 1
126 -6 139 -7 12 -30 26 -57 33 -36 10 -43 15 -34 26 6 8 20 14 31 14 11 0 26
7 35 15 8 8 18 13 23 10 5 -3 6 10 3 30 -8 48 9 65 63 65 24 0 44 4 44 9 0 5
7 17 16 25 19 20 54 5 54 -23z m1087 -33 c33 -34 61 -116 39 -115 -50 1 -63
-16 -21 -27 16 -4 36 -24 53 -51 15 -25 31 -45 35 -45 5 0 23 -10 40 -23 18
-12 41 -27 52 -33 11 -6 24 -20 30 -32 5 -12 13 -22 17 -22 4 0 14 -13 22 -29
14 -26 14 -30 0 -35 -31 -12 -79 -5 -103 15 l-24 20 21 22 21 22 -51 -4 c-27
-1 -54 1 -60 7 -7 7 -21 5 -44 -4 -18 -8 -38 -14 -43 -14 -5 0 -8 35 -7 82 3
86 -18 160 -49 172 -12 4 -15 24 -15 86 l0 81 28 -19 c15 -11 41 -35 59 -54z
m-1584 18 c4 -9 -3 -16 -16 -20 -26 -6 -29 -4 -21 18 8 20 30 21 37 2z m567
-111 c0 -9 -6 -12 -15 -9 -8 4 -15 10 -15 15 0 5 7 9 15 9 8 0 15 -7 15 -15z
m410 -45 c19 -5 49 -26 67 -45 18 -19 59 -47 92 -61 59 -26 59 -26 63 -72 3
-26 3 -49 2 -51 -2 -2 -28 11 -57 29 -70 42 -169 133 -165 151 2 8 -5 14 -17
14 -28 0 -59 20 -51 34 9 14 21 14 66 1z m-1011 -50 c1 -13 0 -13 -9 0 -5 8
-9 24 -9 35 l0 20 9 -20 c5 -11 9 -27 9 -35z m672 -3 c-8 -8 -11 -7 -11 4 0
20 13 34 18 19 3 -7 -1 -17 -7 -23z m649 -12 c0 -8 -2 -15 -4 -15 -2 0 -6 7
-10 15 -3 8 -1 15 4 15 6 0 10 -7 10 -15z m-1680 -30 c20 -21 21 -27 9 -42
-12 -15 -12 -16 3 -11 12 5 17 -1 22 -28 7 -35 -8 -109 -24 -119 -14 -9 -24
80 -11 103 13 25 14 35 2 28 -5 -3 -14 -26 -20 -51 -6 -25 -15 -43 -20 -40
-14 8 -6 116 9 125 8 5 9 9 1 14 -13 8 -15 46 -3 46 5 0 19 -11 32 -25z m280
-5 c0 -5 -4 -10 -9 -10 -6 0 -13 5 -16 10 -3 6 1 10 9 10 9 0 16 -4 16 -10z
m613 -17 c-7 -2 -19 -2 -25 0 -7 3 -2 5 12 5 14 0 19 -2 13 -5z m1762 -37 c28
-20 13 -40 -47 -59 -88 -27 -110 -21 -65 21 21 19 75 52 88 52 3 0 14 -6 24
-14z m-1454 -15 c-10 -10 -21 -25 -23 -32 -4 -11 -12 -8 -32 11 l-28 25 24 6
c13 4 35 7 51 8 26 1 27 1 8 -18z m-257 -92 c63 -43 157 -135 145 -142 -2 -1
-20 -8 -39 -16 -106 -40 -196 -42 -237 -7 l-28 24 18 88 c10 48 21 92 23 96
11 18 46 5 118 -43z m1080 26 c8 -22 -4 -45 -23 -45 -14 0 -14 2 -1 10 13 8
13 11 1 19 -7 5 -10 14 -7 20 10 15 23 14 30 -4z m-1602 -35 c-5 -37 -15 -38
-50 -3 l-27 28 35 6 c46 7 47 5 42 -31z m1363 -20 c10 -58 -12 -82 -35 -39 -9
16 -9 28 0 50 17 40 27 36 35 -11z m-1547 -27 c17 -7 32 -18 32 -24 0 -20 -68
-2 -101 25 l-30 26 33 -7 c18 -3 48 -12 66 -20z m1862 17 c0 -5 -21 -23 -47
-40 l-48 -29 -3 26 c-2 17 3 32 14 40 21 15 84 18 84 3z m185 0 c3 -5 2 -10
-3 -10 -5 0 -21 -11 -36 -25 -33 -30 -50 -32 -41 -5 5 17 2 20 -27 21 -30 1
-28 2 17 14 64 16 82 17 90 5z m-1932 -20 c3 -11 1 -20 -4 -20 -5 0 -9 9 -9
20 0 11 2 20 4 20 2 0 6 -9 9 -20z m2062 -100 c11 -5 38 -14 60 -20 29 -8 47
-21 67 -50 15 -21 45 -48 68 -60 22 -11 40 -23 40 -26 0 -2 -74 33 -164 78
-126 64 -166 80 -175 71 -6 -7 -19 -9 -29 -5 -15 6 -15 7 3 10 25 5 56 37 47
48 -4 4 9 -2 28 -15 19 -12 44 -26 55 -31z m-988 -6 c109 -8 118 -15 118 -101
-1 -37 -7 -85 -14 -105 -11 -34 -16 -38 -46 -38 -23 0 -43 9 -62 26 -58 54
-79 72 -135 113 -53 38 -63 50 -55 67 1 3 -13 12 -30 19 -61 26 -40 37 55 31
48 -4 124 -9 169 -12z m638 -2 c-3 -3 -11 0 -18 7 -9 10 -8 11 6 5 10 -3 15
-9 12 -12z m-1616 -123 c-21 -13 -109 -11 -109 2 0 8 12 10 36 6 34 -6 35 -5
21 11 -16 18 -47 84 -47 99 0 4 26 -18 57 -50 44 -46 53 -61 42 -68z m2219
106 c91 -15 162 -32 162 -40 0 -2 3 -11 7 -21 6 -15 -1 -16 -88 -10 -52 4
-109 10 -127 13 -28 5 -31 3 -25 -13 6 -18 6 -18 -14 -1 -12 10 -24 30 -28 45
-4 15 -12 30 -18 34 -19 12 24 9 131 -7z m-1538 -40 c31 -31 39 -46 29 -49 -8
-2 -27 -9 -44 -14 -16 -5 -30 -14 -30 -20 0 -21 79 -64 139 -74 82 -14 105
-27 190 -109 40 -38 78 -69 84 -69 6 0 23 -12 37 -26 l27 -27 -26 5 c-20 4
-26 1 -26 -13 0 -29 -23 -23 -61 17 -55 57 -326 214 -339 195 -6 -10 -132 40
-137 55 -2 7 8 15 23 18 14 4 36 14 49 22 22 14 22 17 8 44 -8 16 -19 33 -25
36 -9 6 37 53 52 54 3 0 26 -20 50 -45z m-295 25 c4 -6 -7 -10 -24 -10 -17 0
-31 5 -31 10 0 6 11 10 24 10 14 0 28 -4 31 -10z m1048 -2 c9 -7 19 -26 23
-43 l7 -30 -25 23 c-13 12 -36 22 -51 22 -25 0 -36 18 -20 33 11 11 48 8 66
-5z m504 -4 c-3 -3 -12 -4 -19 -1 -8 3 -5 6 6 6 11 1 17 -2 13 -5z m-1640 -44
c5 -27 9 -30 44 -30 59 0 54 -16 -8 -30 -31 -7 -63 -19 -71 -26 -23 -23 -40
-16 -73 33 -30 43 -31 47 -14 59 20 15 35 10 35 -11 0 -26 27 -22 46 6 24 37
33 36 41 -1z m-153 -30 c5 -5 5 -29 2 -54 -5 -32 -15 -52 -34 -67 -23 -17 -28
-18 -30 -5 -2 8 2 24 7 35 9 16 7 21 -9 26 -25 8 -26 42 -3 67 16 18 46 17 67
-2z m1079 -51 c24 -11 25 -16 29 -117 2 -71 8 -107 16 -110 27 -9 -3 -72 -35
-72 -15 0 -17 16 -3 25 13 8 0 33 -51 102 -35 47 -39 58 -39 111 0 32 3 62 7
65 10 11 49 8 76 -4z m-741 -20 c35 -18 39 -23 24 -31 -11 -6 -35 -6 -68 1
-28 6 -53 10 -55 8 -8 -9 120 -117 145 -123 38 -9 85 -34 78 -42 -4 -3 8 -21
26 -39 40 -42 31 -53 -51 -60 -33 -3 -61 -7 -61 -10 0 -2 15 -16 33 -33 23
-20 39 -27 55 -23 21 5 39 -4 87 -42 20 -16 20 -16 -2 -35 l-23 -18 25 -16
c31 -20 32 -36 3 -36 -15 0 -65 42 -153 130 -73 72 -138 130 -146 131 -8 0
-59 11 -114 25 -79 19 -89 23 -47 20 50 -5 52 -4 52 20 0 13 -5 33 -11 43 -10
14 -7 26 11 60 23 40 54 54 62 29 3 -7 7 -2 11 11 4 18 1 24 -14 28 -16 5 -18
8 -7 14 24 16 98 9 140 -12z m58 -63 c8 -3 26 -5 40 -6 23 -1 24 -2 4 -10 -23
-9 -74 -2 -74 10 0 5 -8 11 -17 13 -10 2 -7 3 7 0 14 -2 32 -5 40 -7z m183
-106 c-7 -7 -63 58 -63 73 0 6 16 -6 34 -28 19 -22 32 -42 29 -45z m647 70
c18 -12 2 -12 -25 0 -13 6 -15 9 -5 9 8 0 22 -4 30 -9z m-1550 -4 c0 -3 -4 -8
-10 -11 -5 -3 -10 -1 -10 4 0 6 5 11 10 11 6 0 10 -2 10 -4z m-80 -38 c23 4
36 -16 21 -31 -6 -6 -11 -20 -11 -32 0 -11 -9 -26 -20 -33 -18 -11 -19 -10
-13 18 4 25 2 30 -13 30 -11 0 -36 5 -58 11 l-38 11 26 13 c15 8 34 22 43 31
16 15 18 15 30 -2 8 -11 22 -18 33 -16z m1315 2 c18 -20 17 -20 -13 -20 -34 0
-35 1 -26 24 8 21 17 20 39 -4z m252 -25 c3 -9 3 -19 -1 -22 -7 -7 -36 16 -36
28 0 15 30 10 37 -6z m-1662 -50 c24 -23 35 -52 15 -40 -5 3 -21 -2 -35 -11
-20 -13 -29 -14 -38 -5 -6 6 -20 11 -30 11 -18 0 -18 1 -3 25 9 14 14 30 11
35 -14 22 57 9 80 -15z m1727 -2 c19 -18 28 -37 28 -59 0 -18 6 -34 12 -36 8
-3 5 -9 -9 -16 -22 -12 -53 -7 -53 9 0 5 9 14 20 21 35 22 24 37 -22 31 -40
-6 -41 -5 -35 18 4 13 7 32 7 42 0 25 20 21 52 -10z m-1502 -74 c0 -12 -7 -19
-20 -19 -13 0 -20 -7 -20 -20 0 -19 -27 -40 -51 -40 -8 0 -5 8 6 20 21 23 21
22 -19 35 -38 13 -31 30 11 29 26 -1 34 4 44 29 l13 30 18 -23 c10 -12 18 -31
18 -41z m1256 -44 c34 -22 43 -63 25 -111 -9 -24 -21 -39 -28 -37 -7 3 -13 1
-13 -4 0 -24 -293 6 -321 34 -4 4 -11 28 -15 52 l-7 44 67 -7 c36 -4 78 -11
92 -16 59 -23 104 -2 104 47 0 24 2 25 38 18 20 -3 47 -13 58 -20z m128 -17
c9 -12 16 -17 16 -11 0 7 7 10 15 7 17 -7 21 -34 5 -34 -5 0 -10 -11 -10 -25
0 -28 -38 -72 -50 -58 -4 4 -10 38 -13 76 -5 73 7 88 37 45z m-1150 -59 c33
-15 42 -40 19 -56 -15 -12 -18 -11 -25 7 -4 11 -14 20 -23 20 -15 0 -21 21 -8
33 8 9 8 9 37 -4z m-103 -91 c-6 -17 -11 -42 -11 -55 0 -21 -3 -22 -20 -13
-32 17 -28 84 8 118 l27 27 3 -23 c2 -13 -1 -37 -7 -54z m-191 53 c0 -12 -37
-19 -75 -16 -42 4 -43 5 -20 15 27 12 95 12 95 1z m855 -161 c4 -6 -5 -10 -19
-10 -14 0 -26 5 -26 10 0 6 9 10 19 10 11 0 23 -4 26 -10z m592 -222 c-3 -7
-5 -2 -5 12 0 14 2 19 5 13 2 -7 2 -19 0 -25z"/>
<path d="M3933 2501 c-10 -15 -9 -22 2 -31 13 -11 15 -7 15 19 0 36 -1 37 -17
12z"/>
<path d="M4320 2047 c0 -3 18 -20 40 -37 22 -17 40 -29 40 -27 0 3 -18 20 -40
37 -22 17 -40 29 -40 27z"/>
<path d="M3316 1305 c-27 -25 -28 -27 -10 -40 11 -8 25 -15 32 -15 7 0 25 -6
40 -14 15 -7 53 -16 85 -19 49 -5 57 -3 57 11 0 15 -2 15 -11 2 -8 -12 -9 -9
-5 12 3 14 9 33 12 41 8 22 -21 34 -101 41 -66 6 -72 5 -99 -19z"/>
<path d="M2650 1204 c0 -8 5 -12 10 -9 6 4 8 11 5 16 -9 14 -15 11 -15 -7z"/>
<path d="M2858 1033 c7 -3 16 -2 19 1 4 3 -2 6 -13 5 -11 0 -14 -3 -6 -6z"/>
<path d="M3307 3693 c-11 -10 -8 -53 3 -53 6 0 10 7 10 15 0 9 6 12 18 8 15
-6 15 -4 -2 15 -22 25 -20 24 -29 15z"/>
<path d="M3920 3674 c-14 -7 -34 -14 -44 -14 -19 0 -19 0 0 -21 19 -21 19 -21
-11 -45 -36 -29 -45 -30 -46 -6 -1 9 -7 -3 -15 -27 -8 -25 -11 -47 -9 -50 9
-8 59 35 73 62 7 14 26 35 42 47 24 17 38 20 82 15 36 -5 48 -3 39 3 -11 8
-10 11 5 14 13 3 5 8 -24 17 -24 7 -49 14 -55 16 -7 1 -23 -3 -37 -11z m50 -8
c0 -11 -19 -15 -25 -6 -3 5 1 10 9 10 9 0 16 -2 16 -4z"/>
<path d="M3620 3655 c0 -2 10 -10 23 -16 20 -11 21 -11 8 4 -13 16 -31 23 -31
12z"/>
<path d="M4490 3636 c0 -16 54 -102 68 -110 16 -9 16 -8 1 10 -21 24 -54 87
-51 97 1 4 -2 7 -8 7 -5 0 -10 -2 -10 -4z"/>
<path d="M2494 3616 c10 -8 24 -25 30 -38 12 -24 46 -38 46 -19 0 6 -10 11
-22 11 l-23 0 25 20 c30 23 26 27 -30 35 -42 6 -44 5 -26 -9z"/>
<path d="M4580 3516 c0 -2 45 -27 100 -55 55 -28 100 -50 100 -47 0 2 -37 24
-82 48 -82 44 -118 61 -118 54z"/>
<path d="M4541 3500 c-1 -8 4 -32 10 -53 6 -22 8 -41 5 -44 -6 -6 -85 38 -134
74 -32 24 -51 26 -38 4 3 -5 42 -30 85 -55 87 -50 79 -37 97 -168 11 -80 24
-54 17 34 -6 81 -6 81 17 75 23 -6 22 -6 -3 21 -14 15 -32 50 -40 77 -9 28
-16 43 -16 35z"/>
<path d="M2115 3440 c-8 -13 21 -80 35 -80 16 0 24 30 11 43 -6 6 -11 19 -11
29 0 19 -25 25 -35 8z"/>
<path d="M1802 3279 c-12 -5 -22 -14 -22 -21 1 -19 44 -65 68 -72 17 -6 19 -3
15 14 -3 11 -13 36 -22 54 -15 28 -21 32 -39 25z"/>
<path d="M1960 3276 c0 -2 7 -6 15 -10 8 -3 15 -1 15 4 0 6 -7 10 -15 10 -8 0
-15 -2 -15 -4z"/>
<path d="M2022 3258 c14 -21 98 -53 98 -37 0 10 -82 59 -100 59 -10 0 -9 -5 2
-22z"/>
<path d="M4601 3214 c0 -11 3 -14 6 -6 3 7 2 16 -1 19 -3 4 -6 -2 -5 -13z"/>
<path d="M1860 3149 c0 -6 7 -9 15 -5 8 3 26 -6 41 -19 24 -23 44 -25 44 -6 0
9 -66 41 -85 41 -8 0 -15 -5 -15 -11z"/>
<path d="M2020 3135 c0 -8 -5 -15 -12 -15 -7 0 3 -13 22 -29 39 -32 60 -30 60
4 0 13 6 26 13 28 6 3 -1 6 -16 6 -16 1 -37 6 -48 11 -15 8 -19 7 -19 -5z"/>
<path d="M1400 3020 c-20 -6 -21 -8 -5 -8 11 0 29 3 40 8 25 11 -1 11 -35 0z"/>
<path d="M1313 2995 c-18 -8 -33 -19 -33 -25 0 -13 17 -13 25 0 4 6 21 17 38
24 18 8 25 15 17 15 -8 0 -30 -6 -47 -14z"/>
<path d="M4780 2939 c-13 -6 -36 -8 -50 -5 -23 5 -23 5 -4 -5 14 -7 35 -6 75
4 30 9 43 15 29 15 -14 1 -36 -4 -50 -9z"/>
<path d="M948 2934 c-9 -8 0 -53 14 -70 5 -8 3 -17 -6 -27 -21 -20 -10 -27 41
-27 31 0 43 -4 43 -14 0 -19 7 -23 75 -41 79 -20 109 -4 38 21 -62 22 -68 49
-16 71 18 7 33 20 33 28 0 15 -16 18 -77 17 -27 -1 -33 2 -33 18 0 14 -7 20
-24 20 -13 0 -36 3 -52 6 -16 3 -32 2 -36 -2z"/>
<path d="M4397 2863 c6 -15 22 -17 42 -4 9 6 4 10 -17 13 -22 3 -29 1 -25 -9z"/>
<path d="M4872 2841 c-84 -44 -85 -57 -2 -16 84 42 89 45 69 44 -8 0 -38 -13
-67 -28z"/>
<path d="M5000 2850 c0 -6 7 -10 15 -10 8 0 15 2 15 4 0 2 -7 6 -15 10 -8 3
-15 1 -15 -4z"/>
<path d="M4649 2798 c-6 -21 -5 -39 2 -44 5 -3 9 6 9 20 0 21 -7 36 -11 24z"/>
<path d="M4765 2782 c-11 -2 -24 -8 -30 -14 -9 -9 43 -1 54 8 8 7 -4 10 -24 6z"/>
<path d="M4980 2760 c-17 -41 -6 -50 14 -11 18 35 19 41 7 41 -5 0 -14 -14
-21 -30z"/>
<path d="M1250 2700 c-19 -11 -42 -17 -51 -14 -8 2 -25 -5 -37 -16 -11 -11
-26 -20 -32 -20 -6 0 -8 -4 -5 -10 3 -5 24 -10 46 -10 32 0 48 7 82 39 48 45
47 57 -3 31z"/>
<path d="M1470 2695 c0 -13 4 -14 20 -5 11 6 20 13 20 15 0 3 -9 5 -20 5 -11
0 -20 -7 -20 -15z"/>
<path d="M1572 2703 c-21 -4 -19 -8 24 -35 l48 -30 19 23 c18 22 18 24 1 36
-18 13 -46 15 -92 6z"/>
<path d="M4398 2655 c2 -19 6 -35 8 -35 2 0 4 16 4 35 0 19 -4 35 -8 35 -4 0
-6 -16 -4 -35z"/>
<path d="M1710 2670 c20 -13 50 -13 50 0 0 6 -15 10 -32 10 -25 0 -29 -3 -18
-10z"/>
<path d="M4754 2662 c4 -6 20 -19 37 -27 36 -19 37 -31 2 -43 -16 -6 -23 -11
-18 -11 6 0 28 5 49 13 l40 14 -35 17 c-19 10 -45 25 -59 34 -14 10 -21 11
-16 3z"/>
<path d="M5008 2663 c7 -3 16 -2 19 1 4 3 -2 6 -13 5 -11 0 -14 -3 -6 -6z"/>
<path d="M1550 2640 c-13 -8 -12 -10 3 -10 9 0 17 5 17 10 0 12 -1 12 -20 0z"/>
<path d="M1420 2625 c0 -8 -4 -15 -9 -15 -13 0 -41 -29 -41 -42 0 -6 12 -3 26
7 24 16 26 16 31 -4 3 -12 8 -22 12 -22 38 -8 54 -4 58 12 4 16 12 18 43 13
29 -5 38 -2 43 10 5 11 1 16 -13 16 -11 0 -20 5 -20 10 0 6 -4 10 -10 10 -5 0
-10 -7 -10 -15 0 -20 -2 -19 -60 10 -40 20 -50 22 -50 10z"/>
<path d="M4998 2623 c-24 -6 -22 -16 4 -28 13 -6 28 -20 34 -33 l12 -23 6 25
c7 27 -11 67 -29 65 -5 -1 -18 -3 -27 -6z"/>
<path d="M4401 2594 c0 -11 3 -14 6 -6 3 7 2 16 -1 19 -3 4 -6 -2 -5 -13z"/>
<path d="M2193 2463 c-23 -9 -14 -25 10 -18 31 10 45 25 22 24 -11 0 -26 -3
-32 -6z"/>
<path d="M1246 2445 c-11 -8 -30 -15 -43 -15 -34 0 -92 -26 -100 -45 -3 -11 4
-26 21 -43 14 -15 26 -21 26 -15 0 7 -4 15 -10 18 -5 3 -10 12 -10 18 0 16 50
20 70 7 13 -9 13 -11 1 -19 -13 -8 -13 -12 0 -27 11 -13 11 -18 1 -21 -21 -8
-2 -23 29 -23 19 0 38 9 53 25 24 26 65 45 97 45 11 0 43 -16 72 -35 81 -55
101 -46 41 18 -35 37 -116 82 -142 78 -6 -1 -27 10 -46 24 -38 29 -35 29 -60
10z"/>
<path d="M925 2399 c4 -5 -4 -13 -17 -18 -19 -8 -16 -10 22 -10 25 -1 58 -8
74 -16 16 -9 31 -13 33 -11 9 9 -9 27 -35 38 -51 20 -83 27 -77 17z"/>
<path d="M2470 2351 c0 -19 49 -86 57 -77 6 5 -34 83 -47 91 -5 3 -10 -3 -10
-14z"/>
<path d="M4702 2325 c0 -16 2 -22 5 -12 2 9 2 23 0 30 -3 6 -5 -1 -5 -18z"/>
<path d="M804 2268 c9 -13 27 -40 41 -60 36 -54 105 -66 105 -19 0 14 -10 23
-33 29 -18 5 -47 23 -64 41 -17 17 -39 31 -48 31 -16 0 -16 -2 -1 -22z"/>
<path d="M4709 2242 c-3 -35 0 -52 8 -52 6 0 13 -5 15 -12 3 -9 6 -9 12 0 4 7
2 12 -3 12 -6 0 -11 12 -12 28 -1 15 -4 38 -8 52 -6 20 -9 15 -12 -28z"/>
<path d="M4998 2154 c-16 -8 -28 -21 -28 -29 0 -24 92 -23 149 1 49 20 49 18
6 -27 l-40 -41 63 41 c34 23 62 48 62 56 0 17 -16 20 -25 6 -3 -6 -18 -6 -38
0 -47 13 -118 10 -149 -7z"/>
<path d="M2855 2140 c3 -5 8 -10 11 -10 2 0 4 5 4 10 0 6 -5 10 -11 10 -5 0
-7 -4 -4 -10z"/>
<path d="M1114 2061 c4 -19 24 -58 46 -88 37 -48 44 -53 79 -53 49 0 66 18 50
54 -14 30 -18 31 -45 11 -10 -8 -25 -15 -33 -15 -25 0 -81 50 -81 73 0 12 -5
29 -11 37 -8 11 -9 7 -5 -19z"/>
<path d="M878 2000 c-53 -28 -58 -43 -13 -34 53 10 115 -26 68 -40 -10 -2 -5
-4 11 -3 16 1 34 9 39 18 8 13 3 23 -24 47 -19 17 -36 31 -39 31 -3 0 -22 -9
-42 -19z"/>
<path d="M1870 2006 c0 -18 35 -22 45 -6 3 6 2 10 -4 10 -5 0 -16 3 -25 6 -11
4 -16 1 -16 -10z"/>
<path d="M970 1896 c0 -8 9 -20 21 -26 19 -11 20 -10 10 9 -15 27 -31 36 -31
17z"/>
<path d="M4763 1856 c7 -14 13 -23 15 -21 7 6 -9 45 -18 45 -4 0 -3 -11 3 -24z"/>
<path d="M4975 1842 l-30 -5 25 -7 c19 -6 12 -8 -30 -10 l-55 -2 74 -14 c41
-7 81 -16 89 -19 18 -7 62 21 62 39 0 23 -57 31 -135 18z"/>
<path d="M4770 1810 c0 -5 7 -7 15 -4 8 4 15 8 15 10 0 2 -7 4 -15 4 -8 0 -15
-4 -15 -10z"/>
<path d="M4318 1803 c6 -2 18 -2 25 0 6 3 1 5 -13 5 -14 0 -19 -2 -12 -5z"/>
<path d="M4680 1756 c0 -2 8 -10 18 -17 15 -13 16 -12 3 4 -13 16 -21 21 -21
13z"/>
<path d="M4787 1733 c-10 -9 -9 -33 1 -33 4 0 8 9 9 20 2 21 0 24 -10 13z"/>
<path d="M4730 1694 l-25 -15 29 3 c16 2 31 9 34 16 5 15 -6 14 -38 -4z"/>
<path d="M1238 1688 c-75 -20 -87 -77 -22 -104 31 -13 42 -12 110 5 42 11 79
22 82 26 11 11 -14 39 -54 62 -42 25 -59 26 -116 11z"/>
<path d="M4978 1684 c6 -3 12 -17 12 -30 0 -13 5 -24 11 -24 5 0 7 -4 4 -10
-10 -16 7 -12 28 8 20 17 20 17 4 -9 -10 -14 -14 -29 -10 -33 5 -4 -6 -5 -22
-1 -29 6 -29 6 -10 -10 24 -19 47 -16 50 6 2 9 11 33 20 53 10 20 16 39 14 41
-3 2 -29 6 -59 9 -30 4 -49 3 -42 0z"/>
<path d="M4858 1673 c-10 -2 -18 -9 -18 -14 0 -6 10 -5 23 2 37 20 36 23 -5
12z"/>
<path d="M4803 1575 c0 -22 2 -30 4 -17 2 12 2 30 0 40 -3 9 -5 -1 -4 -23z"/>
<path d="M4945 1600 c3 -5 11 -10 16 -10 6 0 7 5 4 10 -3 6 -11 10 -16 10 -6
0 -7 -4 -4 -10z"/>
<path d="M4931 1331 c-9 -6 -4 -10 16 -14 34 -6 41 -2 16 11 -11 6 -25 7 -32
3z"/>
<path d="M4995 1310 c3 -5 8 -10 11 -10 2 0 4 5 4 10 0 6 -5 10 -11 10 -5 0
-7 -4 -4 -10z"/>
<path d="M4965 1290 c3 -5 8 -10 11 -10 2 0 4 5 4 10 0 6 -5 10 -11 10 -5 0
-7 -4 -4 -10z"/>
<path d="M1910 1050 c8 -5 24 -9 35 -9 l20 0 -20 9 c-11 5 -27 9 -35 9 -13 1
-13 0 0 -9z"/>
<path d="M1296 981 c-10 -11 -28 -22 -40 -24 -11 -2 -4 -5 17 -6 25 -1 40 4
43 14 11 27 -1 37 -20 16z"/>
<path d="M1425 980 c3 -5 13 -10 21 -10 8 0 12 5 9 10 -3 6 -13 10 -21 10 -8
0 -12 -4 -9 -10z"/>
<path d="M4001 950 c-45 -23 -55 -48 -28 -77 29 -32 53 -29 66 8 13 36 15 90
4 88 -5 -1 -23 -9 -42 -19z"/>
<path d="M2500 900 c-13 -8 -12 -10 3 -10 9 0 17 5 17 10 0 12 -1 12 -20 0z"/>
<path d="M1550 845 c-17 -21 -3 -35 33 -34 18 0 26 3 20 6 -7 2 -13 11 -13 18
0 19 -27 26 -40 10z"/>
<path d="M2778 733 c7 -3 16 -2 19 1 4 3 -2 6 -13 5 -11 0 -14 -3 -6 -6z"/>
<path d="M1820 722 c0 -5 5 -22 10 -39 8 -23 22 -33 60 -47 28 -10 50 -24 50
-30 0 -7 -12 -23 -26 -37 -23 -22 -54 -69 -54 -84 0 -3 18 4 40 15 51 26 60
25 60 -5 0 -22 10 -31 63 -55 79 -38 124 -47 142 -29 12 12 9 14 -20 15 -47 1
-135 43 -135 64 0 9 14 45 31 79 42 85 31 93 -25 19 -34 -45 -50 -40 -41 11 5
28 2 41 -10 51 -13 11 -18 11 -25 1 -5 -9 -18 -11 -38 -7 -23 6 -31 14 -36 36
-5 26 -46 63 -46 42z"/>
<path d="M1677 702 c-10 -10 -14 -22 -10 -25 3 -4 13 2 21 14 18 26 10 35 -11
11z"/>
<path d="M1433 679 c-22 -22 -1 -45 62 -67 103 -36 107 -28 23 38 -52 42 -67
47 -85 29z m42 -29 c3 -5 2 -10 -4 -10 -5 0 -13 5 -16 10 -3 6 -2 10 4 10 5 0
13 -4 16 -10z"/>
<path d="M1790 635 c-14 -17 -66 -20 -103 -6 -22 8 -29 5 -51 -22 -14 -17 -26
-34 -26 -38 0 -18 32 -37 73 -43 75 -11 121 18 115 74 -2 19 3 34 12 40 8 5
10 10 4 10 -6 0 -17 -7 -24 -15z"/>
<path d="M2201 514 c0 -11 3 -14 6 -6 3 7 2 16 -1 19 -3 4 -6 -2 -5 -13z"/>
<path d="M2286 497 c-25 -18 -9 -47 46 -87 44 -32 79 -38 97 -16 15 18 -4 75
-33 98 -25 21 -85 23 -110 5z"/>
<path d="M1672 438 c-7 -7 -12 -22 -12 -33 0 -27 37 -45 107 -52 43 -5 54 -3
59 11 18 48 -116 112 -154 74z"/>
<path d="M1890 421 c-19 -36 -12 -68 15 -75 37 -9 65 9 65 42 0 16 -5 33 -12
40 -18 18 -56 14 -68 -7z"/>
</g>
</svg>
